<svg width="139" height="136" viewBox="0 0 139 136" fill="none" xmlns="http://www.w3.org/2000/svg">
<ellipse cx="86.5747" cy="124.85" rx="44.2948" ry="4.92164" fill="#D9D9D9"/>
<path d="M94.426 106.532C94.173 105.201 94.1864 103.833 94.4641 102.506C94.7417 101.179 95.2766 99.9191 96.0426 98.7983C96.8086 97.6775 97.7875 96.7171 98.9252 95.9731C100.063 95.2291 101.338 94.7159 102.675 94.462C105.371 93.9476 108.159 94.5221 110.428 96.0576C112.697 97.5932 114.261 99.9643 114.774 102.65C115.286 105.336 114.704 108.117 113.16 110.38C111.616 112.643 109.235 114.203 106.539 114.718C105.203 114.974 103.828 114.964 102.496 114.691C101.164 114.418 99.9006 113.886 98.7758 113.126C97.651 112.366 96.6902 111.393 95.9435 110.261C95.1969 109.13 94.6808 107.863 94.426 106.532ZM58.9402 113.302C58.6845 111.971 58.6954 110.602 58.9711 109.275C59.2468 107.948 59.7811 106.689 60.5461 105.568C61.3111 104.447 62.2914 103.487 63.4287 102.743C64.5661 101.999 65.8391 101.487 67.1751 101.234C68.5107 100.977 69.8856 100.984 71.2173 101.257C72.5489 101.53 73.813 102.062 74.9375 102.823C76.0619 103.583 77.0244 104.557 77.7701 105.689C78.5157 106.821 79.0281 108.09 79.281 109.421C79.5358 110.752 79.5263 112.119 79.2498 113.446C78.9734 114.773 78.4369 116.033 77.6713 117.154C76.9058 118.275 75.9265 119.235 74.7887 119.979C73.651 120.722 72.3755 121.237 71.0392 121.49C69.704 121.746 68.3308 121.736 66.9998 121.463C65.6689 121.19 64.4068 120.657 63.2831 119.897C62.1594 119.136 61.199 118.161 60.454 117.03C59.7089 115.898 59.193 114.632 58.9402 113.302ZM57.5371 94.3965C56.7113 94.5534 55.8564 94.4415 55.1006 94.0761C54.3449 93.7107 53.7283 93.1115 53.3418 92.3684L25.2385 37.7916L4.92365 34.2203C4.2356 34.1234 3.58567 33.8428 3.04537 33.4079C2.50508 32.9731 2.0946 32.4003 1.85501 31.7506C1.61414 31.1 1.55314 30.3958 1.6814 29.7137C1.80966 29.0316 2.12001 28.3958 2.58109 27.8753C3.03436 27.3478 3.62304 26.9511 4.28227 26.7263C4.9415 26.5016 5.64686 26.4578 6.32868 26.5983L28.5287 30.4917C29.1179 30.5926 29.6755 30.8284 30.1576 31.1802C30.6398 31.5321 31.031 31.9899 31.3052 32.5192L36.5744 42.7493L114.522 27.8794C115.095 27.7668 115.687 27.7843 116.251 27.9296C116.816 28.0748 117.342 28.3433 117.788 28.7178C118.23 29.0981 118.577 29.5749 118.806 30.11C119.036 30.6451 119.142 31.2245 119.112 31.8059L117.127 79.9593C117.094 80.8324 116.765 81.6678 116.193 82.3307C115.621 82.9936 114.84 83.4445 113.979 83.6079L57.5371 94.3965ZM95.5547 39.5601L95.4649 79.2807L109.476 76.6079L111.129 36.3839L95.51 39.3634C95.529 39.4312 95.5356 39.5023 95.5284 39.5723L95.5547 39.5601ZM79.3728 82.3506L87.6833 80.7652L87.7768 40.8387L64.6324 45.2539L79.3728 82.3506ZM58.9317 86.2501L71.5911 83.8351L57.2 47.5925C57.1056 47.3048 57.0486 47.0063 57.0305 46.7041L40.2227 49.9104L58.9317 86.2501Z" fill="#2088E2"/>
</svg>
