<svg version="1.0" xmlns="http://www.w3.org/2000/svg" width="256px" height="256px" viewBox="0 0 256 256">
 <g fill="#3c5a99">
  <path d="M119 254.9 c-9.9 -0.9 -26.2 -4.3 -33 -6.9 -32.9 -12.6 -58.5 -35.6 -72.3 -65 -5.9 -12.4 -7.7 -17.9 -10.3 -31 -8.3 -41.2 4.7 -83.3 35 -113.6 18.6 -18.6 39.6 -29.8 65.6 -35 47.8 -9.6 97.8 10.1 126.6 50 11.2 15.6 18.2 31.7 22 50.6 8.3 41.2 -4.7 83.4 -35 113.6 -18.4 18.5 -39.9 29.9 -65.1 34.9 -14.2 2.7 -23.3 3.4 -33.5 2.4z m16 -94.9 l0 -28.9 9.7 -0.3 9.8 -0.3 0.7 -5.5 c0.4 -3 1 -6.7 1.3 -8.2 l0.5 -2.8 -11 0 -11 0 0 -12.6 c0 -7.1 0.5 -13.4 1.1 -14.6 1.6 -3 7.1 -4.8 14.9 -4.8 l7 0 0 -6.9 0 -6.8 -3.1 -0.7 c-10 -2 -21.3 0.5 -27.9 6.2 -7.3 6.1 -10 14.6 -10 30.7 l0 9.5 -9.5 0 -9.5 0 0 8.5 0 8.5 9.5 0 9.5 0 0 29 0 29 9 0 9 0 0 -29z"/>
 </g>
 <g fill="#ffffff">
  <path d="M114 163 l0 -29 -9.5 0 -9.5 0 0 -11.5 0 -11.5 9.5 0 9.5 0 0 -9.5 c0 -20.8 5.7 -31.5 19.1 -35.8 5.2 -1.7 18.7 -2.3 24.8 -1.1 l3.1 0.7 0 9.8 0 9.9 -7 0 c-7.8 0 -13.3 1.8 -14.9 4.8 -0.6 1.2 -1.1 6.4 -1.1 11.6 l0 9.6 11 0 11 0 -0.1 3.3 c0 1.7 -0.6 6.8 -1.2 11.2 l-1.2 8 -9.8 0.3 -9.7 0.3 0 28.9 0 29 -12 0 -12 0 0 -29z"/>
 </g>
</svg>