<svg xmlns="http://www.w3.org/2000/svg" width="29" height="26"><path fill="#2088e2" d="M14.03 25.704a.936.936 0 01-.586-.204l-8.663-6.904C1.564 15.928.464 12.356.419 12.205-1.712 3.804 4.973 1.215 5.041 1.19c4.509-1.65 7.488.373 8.99 2.414 1.5-2.042 4.478-4.067 8.987-2.415.071.025 6.755 2.615 4.635 10.976-.055.188-1.155 3.761-4.358 6.42L14.618 25.5a.941.941 0 01-.587.204zM2.234 11.701c.001 0 .99 3.156 3.738 5.435l8.06 6.423 8.075-6.435c2.757-2.287 3.725-5.43 3.733-5.461 1.685-6.65-3.266-8.627-3.478-8.709-5.403-1.98-7.378 2.695-7.458 2.893-.29.71-1.452.71-1.742.004-.209-.5-2.188-4.829-7.469-2.893-.203.078-5.156 2.056-3.46 8.742z"/></svg>