<svg xmlns="http://www.w3.org/2000/svg" width="256px" height="256px" viewBox="0 0 256 256">
 <g fill="#e4405f">
  <path d="M119 254.9 c-9.9 -0.9 -26.2 -4.3 -33 -6.9 -32.9 -12.6 -58.5 -35.6 -72.3 -65 -5.9 -12.4 -7.7 -17.9 -10.3 -31 -8.3 -41.2 4.7 -83.3 35 -113.6 18.6 -18.6 39.6 -29.8 65.6 -35 47.8 -9.6 97.8 10.1 126.6 50 11.2 15.6 18.2 31.7 22 50.6 8.3 41.2 -4.7 83.4 -35 113.6 -18.4 18.5 -39.9 29.9 -65.1 34.9 -14.2 2.7 -23.3 3.4 -33.5 2.4z m45 -68.3 c11.1 -3.5 19.1 -11.8 22.8 -23.6 2.5 -8.2 2.5 -61.8 0 -70.1 -3.7 -11.8 -11.9 -20 -23.7 -23.7 -4.8 -1.5 -9.9 -1.7 -35.6 -1.7 -26.2 0 -30.6 0.2 -35.1 1.8 -11.5 4 -18.2 10.4 -22.5 21.6 -2.1 5.1 -2.3 7.8 -2.7 31.7 -0.5 29.8 0.4 37.9 4.9 47.2 4.8 9.9 13.5 15.9 26.3 18.2 2.8 0.5 17.5 0.7 32.6 0.6 22.7 -0.3 28.5 -0.6 33 -2z"/>
  <path d="M99.3 182.9 c-13.5 -1 -19.2 -4 -23.4 -12.2 -3.3 -6.3 -4.1 -17.8 -3.7 -48.5 0.4 -24.2 0.7 -29.5 2.2 -33.7 2.3 -6.5 6.7 -11 13.5 -13.7 5.4 -2.2 6.7 -2.3 38.1 -2.2 35.7 0 41.3 0.7 47.8 5.4 7 5 8.4 9.5 9.5 31.1 1.2 22.5 -0.1 54.3 -2.5 59.9 -1.8 4.1 -6.7 9.4 -10.9 11.6 -5.7 2.9 -45.6 4.3 -70.6 2.3z m40.4 -29 c7.1 -3.4 11.6 -8.1 15.1 -15.9 3.3 -7.1 3.3 -12.9 0.1 -20 -4.7 -10.1 -11.4 -15.7 -22.1 -18.6 -4.6 -1.2 -6 -1.2 -10.4 0.1 -11.1 3.2 -19.7 11.9 -23 23.1 -1.4 4.9 -1.4 5.9 0 10.8 3.2 11 11.7 19.7 22.5 23.1 5.8 1.8 10 1.2 17.8 -2.6z m24.7 -57.8 c3.2 -3.5 -1.2 -7.8 -4.6 -4.4 -1.6 1.7 -1.7 2 -0.2 4.1 1.9 2.7 2.6 2.7 4.8 0.3z"/>
  <path d="M116.4 150.6 c-4.4 -1.9 -10.2 -8.3 -11.5 -12.6 -0.6 -2 -1 -7.5 -0.8 -12.2 0.3 -7.3 0.8 -9 3.1 -12.4 1.5 -2.1 4.4 -5 6.5 -6.4 3.3 -2.3 4.6 -2.5 14.3 -2.5 9.7 0 11 0.2 14.3 2.5 2.1 1.4 5 4.3 6.5 6.4 2.5 3.7 2.7 4.6 2.7 14.6 0 9.7 -0.2 11 -2.5 14.4 -1.4 2 -4.5 5 -6.9 6.6 -4.1 2.8 -5.1 3 -13.5 3 -5.3 -0.1 -10.4 -0.6 -12.2 -1.4z"/>
 </g>
 <g fill="#fff">
  <path d="M95.4 190.9 c-12.8 -2.2 -21.5 -8.2 -26.3 -18.1 -4.6 -9.5 -5.4 -17.2 -4.9 -50.2 0.4 -27.1 0.6 -29.5 2.6 -34.7 4.4 -11.2 11.1 -17.6 22.6 -21.6 4.5 -1.6 9 -1.8 38.1 -1.8 28.5 0 33.8 0.2 38.6 1.7 7.8 2.4 14.8 7.4 18.7 13.2 6.3 9.4 6.7 12.4 6.7 48.6 0 27.8 -0.2 33.3 -1.7 38 -3.7 11.8 -11.7 20.1 -22.8 23.6 -4.6 1.4 -10.4 1.8 -36 2 -16.8 0.1 -32.8 -0.2 -35.6 -0.7z m55.8 -10.9 c7.7 -0.6 13.9 -1.5 15.7 -2.4 4.2 -2.2 9.1 -7.5 10.9 -11.6 2.3 -5.5 3.6 -34.8 2.5 -55.4 -1.2 -20 -2.7 -24.7 -9.5 -29.6 -6.4 -4.6 -12.3 -5.4 -44.8 -5.4 -28.3 -0.1 -29.7 0 -35.1 2.2 -6.8 2.7 -11.2 7.2 -13.5 13.7 -1.4 4.1 -1.8 9.5 -2.2 30.7 -0.7 40.6 1.4 49.1 13.6 55.3 6.1 3 37.9 4.3 62.4 2.5z"/>
  <path d="M118.9 159.5 c-14.8 -4.7 -25.1 -19.7 -23.6 -34.2 0.7 -6.4 4.3 -14.6 8.6 -19.5 3.8 -4.4 13.4 -9.4 19.8 -10.4 9.1 -1.3 22.4 3.5 28.5 10.5 11.2 12.7 11.1 31.5 -0.1 44.4 -7.3 8.3 -22.7 12.6 -33.2 9.2z m20.2 -13.5 c7.2 -4.8 9.4 -9 9.4 -18 0 -6.7 -0.3 -8.2 -2.7 -11.6 -1.5 -2.1 -4.4 -5 -6.5 -6.4 -3.1 -2.1 -4.8 -2.5 -11.3 -2.5 -6.5 0 -8.2 0.4 -11.3 2.5 -5.9 4 -9 9.2 -9.5 16 -0.5 7.4 0.9 11.8 5.5 16.5 4.7 4.9 8.5 6.4 15.9 6.5 5.1 0 6.8 -0.5 10.5 -3z"/>
  <path d="M159.3 101 c-1.2 -0.5 -2.9 -2.2 -3.7 -3.9 -1.9 -3.6 -0.9 -7.2 2.8 -9.6 4.6 -3.1 11.6 1.2 11.6 7 0 1.9 -4.1 6.2 -6.5 6.8 -1.1 0.3 -3 0.2 -4.2 -0.3z"/>
 </g>
</svg>