<svg width="123" height="112.00000000000001" xmlns="http://www.w3.org/2000/svg" fill="none">
 <g>
  <path id="svg_1" stroke-linejoin="round" stroke-linecap="round" stroke-width="11.124" stroke="#2088E2" d="m35.4775,17.124l81.7625,0l-11.124,38.934l-64.6485,0m70.2105,22.248l-66.744,0l-11.124,-72.306l-16.686,0m0,27.81l-11.124,0m16.686,16.686l-16.686,0m22.248,16.686l-22.248,0m44.496,33.372c0,3.072 -2.4902,5.562 -5.562,5.562c-3.0718,0 -5.562,-2.49 -5.562,-5.562c0,-3.0719 2.4902,-5.562 5.562,-5.562c3.0718,0 5.562,2.4901 5.562,5.562zm61.182,0c0,3.072 -2.49,5.562 -5.562,5.562c-3.072,0 -5.562,-2.49 -5.562,-5.562c0,-3.0719 2.49,-5.562 5.562,-5.562c3.072,0 5.562,2.4901 5.562,5.562z"/>
  <rect id="svg_7" height="34.13043" width="69.56521" y="18.7826" x="41.28261" stroke-dasharray="5,2,2,2" stroke-width="0" stroke="#000" fill="#2088e2"/>
 </g>
</svg>