<svg xmlns="http://www.w3.org/2000/svg" width="100" height="100" viewBox="-10 -10 125 125">
<g transform="matrix(1.870377301 0 0 1.8703772681 15.2466244941 15.2466242273)" >
<path style="stroke: rgb(225,166,59); stroke-width: 2; stroke-dasharray: none; stroke-linecap: butt; stroke-dashoffset: 0; stroke-linejoin: miter; stroke-miterlimit: 4; fill: none; fill-rule: nonzero; opacity: 1;"  transform=" translate(-7.1123755334, -7.1123755334)" d="M 0 0 L 14.22475106685633 0 L 14.22475106685633 14.22475106685633 L 0 14.22475106685633 Z" strokeLinecap="round" />
</g>
<g transform="matrix(1.870377301 0 0 1.8703772681 50 15.2466242273)" >
<path style="stroke: rgb(225,166,59); stroke-width: 2; stroke-dasharray: none; stroke-linecap: butt; stroke-dashoffset: 0; stroke-linejoin: miter; stroke-miterlimit: 4; fill: none; fill-rule: nonzero; opacity: 1;"  transform=" translate(-7.1123755334, -7.1123755334)" d="M 0 0 L 14.22475106685633 0 L 14.22475106685633 14.22475106685633 L 0 14.22475106685633 Z" strokeLinecap="round" />
</g>
<g transform="matrix(1.870377301 0 0 1.8703772681 84.7533755059 15.2466242273)">
<path style="stroke: rgb(225,166,59); stroke-width: 2; stroke-dasharray: none; stroke-linecap: butt; stroke-dashoffset: 0; stroke-linejoin: miter; stroke-miterlimit: 4; fill: none; fill-rule: nonzero; opacity: 1;"  transform=" translate(-7.1123755334, -7.1123755334)" d="M 0 0 L 14.22475106685633 0 L 14.22475106685633 14.22475106685633 L 0 14.22475106685633 Z" strokeLinecap="round" />
</g>
<g transform="matrix(1.870377301 0 0 1.8703772681 15.2466244941 49.4376399287)">
<path style="stroke: rgb(225,166,59); stroke-width: 2; stroke-dasharray: none; stroke-linecap: butt; stroke-dashoffset: 0; stroke-linejoin: miter; stroke-miterlimit: 4; fill: none; fill-rule: nonzero; opacity: 1;"  transform=" translate(-7.1123755334, -7.1123755334)" d="M 0 0 L 14.22475106685633 0 L 14.22475106685633 14.22475106685633 L 0 14.22475106685633 Z" strokeLinecap="round" />
</g>
<g transform="matrix(1.870377301 0 0 1.8703772681 50 49.4376399287)">
<path style="stroke: rgb(225,166,59); stroke-width: 2; stroke-dasharray: none; stroke-linecap: butt; stroke-dashoffset: 0; stroke-linejoin: miter; stroke-miterlimit: 4; fill: none; fill-rule: nonzero; opacity: 1;"  transform=" translate(-7.1123755334, -7.1123755334)" d="M 0 0 L 14.22475106685633 0 L 14.22475106685633 14.22475106685633 L 0 14.22475106685633 Z" strokeLinecap="round" />
</g>
<g transform="matrix(1.870377301 0 0 1.8703772681 84.7533755059 49.4376399287)">
<path style="stroke: rgb(225,166,59); stroke-width: 2; stroke-dasharray: none; stroke-linecap: butt; stroke-dashoffset: 0; stroke-linejoin: miter; stroke-miterlimit: 4; fill: none; fill-rule: nonzero; opacity: 1;"  transform=" translate(-7.1123755334, -7.1123755334)" d="M 0 0 L 14.22475106685633 0 L 14.22475106685633 14.22475106685633 L 0 14.22475106685633 Z" strokeLinecap="round" />
</g>
<g transform="matrix(1.870377301 0 0 1.8703772681 15.2466244941 84.7533757727)">
<path style="stroke: rgb(225,166,59); stroke-width: 2; stroke-dasharray: none; stroke-linecap: butt; stroke-dashoffset: 0; stroke-linejoin: miter; stroke-miterlimit: 4; fill: none; fill-rule: nonzero; opacity: 1;"  transform=" translate(-7.1123755334, -7.1123755334)" d="M 0 0 L 14.22475106685633 0 L 14.22475106685633 14.22475106685633 L 0 14.22475106685633 Z" strokeLinecap="round" />
</g>
<g transform="matrix(1.870377301 0 0 1.8703772681 50 84.7533757727)">
<path style="stroke: rgb(225,166,59); stroke-width: 2; stroke-dasharray: none; stroke-linecap: butt; stroke-dashoffset: 0; stroke-linejoin: miter; stroke-miterlimit: 4; fill: none; fill-rule: nonzero; opacity: 1;"  transform=" translate(-7.1123755334, -7.1123755334)" d="M 0 0 L 14.22475106685633 0 L 14.22475106685633 14.22475106685633 L 0 14.22475106685633 Z" strokeLinecap="round" />
</g>
<g transform="matrix(1.870377301 0 0 1.8703772681 84.7533755059 84.7533757727)">
<path style="stroke: rgb(225,166,59); stroke-width: 2; stroke-dasharray: none; stroke-linecap: butt; stroke-dashoffset: 0; stroke-linejoin: miter; stroke-miterlimit: 4; fill: none; fill-rule: nonzero; opacity: 1;"  transform=" translate(-7.1123755334, -7.1123755334)" d="M 0 0 L 14.22475106685633 0 L 14.22475106685633 14.22475106685633 L 0 14.22475106685633 Z" strokeLinecap="round" />
</g>
</svg>