<svg xmlns="http://www.w3.org/2000/svg" width="64px" height="64px" viewBox="0 0 64 64">
 <g fill="#e1a63c">
  <path d="M8.35 58 c-0.65 -0.55 -1.40 -1.60 -1.60 -2.35 -1.35 -5.25 -6.75 -29.55 -6.75 -30.30 0 -0.50 0.65 -1.60 1.45 -2.40 l1.45 -1.45 6.95 0 6.90 0 1.55 -3.65 c4.85 -11.05 5.50 -12.40 6.35 -12.65 1 -0.30 2.35 0.60 2.35 1.55 0 0.35 -1.35 3.75 -3 7.55 -1.65 3.80 -3 6.95 -3 7.05 0 0.10 4.95 0.15 11.05 0.15 9.25 0 11 -0.10 10.80 -0.70 -0.15 -0.40 -1.55 -3.65 -3.15 -7.25 -2.75 -6.40 -3 -7.75 -1.45 -8.35 1.40 -0.55 2.40 1.05 5.75 8.75 l3.25 7.55 6.70 0 c6.15 0 6.90 0.10 8.40 1.15 1.45 1 1.65 1.35 1.65 3.50 0 1.30 -0.20 2.75 -0.50 3.25 -0.25 0.45 -1.80 6.80 -3.45 14.10 -2.65 11.70 -3.15 13.40 -4.30 14.40 l-1.30 1.10 -22.40 0 c-21.60 0 -22.45 -0.05 -23.70 -1z m48.50 -17.45 c1.75 -7.75 3.10 -14.45 2.95 -14.85 -0.20 -0.55 -1.50 -0.70 -5.55 -0.70 l-5.25 0 0.30 1.25 c0.35 1.45 -0.50 2.75 -1.85 2.75 -0.60 0 -1.25 -0.70 -1.80 -1.85 l-0.90 -1.90 -12.65 -0.15 -12.60 -0.10 -0.85 1.75 c-0.45 0.95 -1.25 1.85 -1.75 2.05 -1.45 0.45 -2.55 -0.75 -2.20 -2.40 l0.25 -1.40 -5.45 0 c-5.10 0 -5.50 0.05 -5.50 0.95 0 0.85 5.55 25.70 6.30 28.20 0.25 0.80 1.60 0.85 21.80 0.75 l21.55 -0.15 3.20 -14.20z"/>
  <path d="M19.85 50.35 c-0.80 -0.55 -0.85 -1.50 -0.75 -8.60 l0.15 -8 1.50 0 1.50 0 0.15 7.95 c0.15 9 -0.25 10.35 -2.55 8.65z"/>
  <path d="M30.85 50.35 c-0.80 -0.55 -0.85 -1.50 -0.75 -8.30 0.15 -6.70 0.25 -7.75 1.05 -8.25 0.60 -0.40 1.10 -0.40 1.75 0 0.75 0.50 0.85 1.55 1 8.25 0.10 6.80 0.05 7.75 -0.75 8.30 -0.45 0.35 -1 0.65 -1.15 0.65 -0.15 0 -0.70 -0.30 -1.15 -0.65z"/>
  <path d="M42.35 50.35 c-0.80 -0.55 -0.85 -1.50 -0.75 -8.60 l0.15 -8 1.50 0 1.50 0 0.15 7.95 c0.15 9 -0.25 10.35 -2.55 8.65z"/>
 </g>
</svg>