<svg xmlns="http://www.w3.org/2000/svg" width="256px" height="256px" viewBox="0 0 256 256">
 <g fill="#00d95f">
  <path d="M115.5 254.3 c-1.1 -0.2 -6.9 -1.3 -12.9 -2.4 -36.8 -6.9 -68.9 -31.1 -87.3 -65.7 -22.1 -41.7 -18.3 -93.1 10 -133.2 4.2 -5.9 18.4 -20.7 23.7 -24.5 2.2 -1.6 5.6 -4.1 7.4 -5.5 3.7 -2.9 21.2 -11.8 29.3 -15 16 -6.3 45 -8.8 61.8 -5.4 4.4 0.9 10 2 12.4 2.5 7.5 1.5 24.2 8.6 32.6 13.8 6.1 3.7 11.9 7.5 12.5 8.1 0.3 0.3 3.5 3.1 7.2 6.3 7.1 6.2 20.1 21.6 23.7 28.2 10.2 18.8 12.1 23.6 15.8 40 3.5 15.1 3.7 36.3 0.5 51 -6.9 32.2 -23.3 58 -49.3 77.4 -7.7 5.7 -23.8 14.3 -33.9 18.1 -13 4.8 -43.8 8.4 -53.5 6.3z m-16.1 -79 c2.3 0.2 7.3 1.7 11.1 3.2 18.9 7.3 41.2 2.2 57.4 -13.1 10.9 -10.3 17.5 -22.8 20 -38 2.8 -17.8 -9.3 -42.5 -26.6 -54 -10.6 -7 -28.8 -12.3 -37.7 -10.9 -14 2.1 -26.5 8.4 -36.7 18.5 -8.7 8.6 -13.6 17.4 -17 30.5 -2.5 9.9 -2 16.2 2.3 28.3 4.1 11.2 4.1 17.3 0.1 31.3 l-3 10.7 13 -3.5 c8.7 -2.3 14.4 -3.3 17.1 -3z"/>
  <path d="M111 174.6 c-2.5 -0.7 -6.3 -2.2 -8.4 -3.3 -4 -2 -4 -2 -10.5 -0.2 -3.6 1.1 -8.3 1.9 -10.3 1.9 -3.7 0 -3.8 -0.1 -3.8 -3.7 0 -2.1 0.8 -6.7 1.8 -10.2 1.8 -6.3 1.8 -6.3 -0.5 -11.1 -5.1 -10.8 -6.7 -26.9 -3.9 -40 3.8 -17.3 18.8 -33 36.1 -37.6 14.7 -4 29.9 -2.6 42.7 3.8 10.6 5.3 17.5 12.4 23 23.5 4.2 8.4 4.2 8.7 4.6 21 0.3 7.9 0 14.7 -0.8 18.2 -3.8 17.4 -18.9 33 -36.5 37.7 -6.3 1.7 -27.4 1.7 -33.5 0z m38.3 -29.5 c1.5 -1 3.5 -2.8 4.3 -4 1.9 -2.7 1 -4.1 -4.6 -6.6 l-4.1 -1.8 -3 3.6 c-2.3 2.8 -3.8 3.7 -6.2 3.7 -4.9 0 -13.2 -4.8 -19.2 -11.1 -5.2 -5.4 -5.5 -6 -5.5 -10.9 0 -3 0.7 -6.1 1.6 -7.6 1.6 -2.3 1.6 -2.7 -0.1 -6.4 -1 -2.2 -2.4 -4.5 -3.1 -5.1 -2 -1.7 -5 0.5 -6.8 5 -1.4 3.6 -1.4 4.4 -0.1 8.2 2.2 6.2 7.5 13.7 14.1 19.9 6.7 6.4 11.3 9.4 19.3 12.6 6.8 2.8 9.7 3 13.4 0.5z"/>
 </g>
 <g fill="#fff">
  <path d="M65 185.2 c0 -0.9 1.8 -8.4 4.1 -16.7 3.4 -12.6 3.8 -15.4 2.8 -17.5 -3 -6.6 -6 -18.3 -6.6 -25.5 -0.4 -6.3 -0.1 -9.8 1.6 -16.5 3.3 -13.5 8.2 -22.3 17 -31 18.7 -18.5 43 -23.5 67.7 -14 21.4 8.2 35.6 26.3 39.4 50.1 2 12.6 -1.3 28 -9 41 -4.8 8.2 -16.1 18.9 -24.1 23 -16.9 8.5 -37.7 9.2 -54.9 1.8 l-4.8 -2 -11.8 3.1 c-6.6 1.7 -14 3.8 -16.6 4.5 -4.4 1.3 -4.8 1.2 -4.8 -0.3z m76.5 -13.6 c17.5 -4.7 32.4 -20 36.5 -37.5 0.8 -3.3 1.1 -9.1 0.8 -15.2 -0.5 -9.2 -0.8 -10.6 -4.6 -18.3 -15.9 -31.9 -57 -39.1 -81.7 -14.2 -16.2 16.2 -19.9 39.4 -9.6 59.6 l2.8 5.5 -2.4 8.9 c-1.4 4.8 -2.2 9 -2 9.3 0.3 0.2 3.9 -0.5 7.9 -1.6 9.5 -2.7 10.8 -2.6 16.8 0.4 2.8 1.4 6.7 2.9 8.7 3.4 5.9 1.4 21.3 1.2 26.8 -0.3z"/>
  <path d="M132.9 147.6 c-8 -3.2 -12.6 -6.2 -19.3 -12.6 -9.3 -8.8 -15.6 -19.7 -15.6 -27.1 0 -4.2 2.8 -10.6 5.5 -12.3 5.2 -3.4 8.4 -1.8 12.4 6.1 2.6 5.2 2.6 6.9 0.1 11.1 -1.1 1.8 -2 4.2 -2 5.3 0 3 10 13 16.2 16.2 l5.3 2.8 3.5 -4.1 c4.2 -4.7 6.2 -5 13.1 -1.5 6.4 3.3 7.7 6 5.4 10.9 -3.7 7.7 -13.5 9.8 -24.6 5.2z"/>
 </g>
</svg>