<svg width="123" height="112" viewBox="0 0 123 112" fill="none" xmlns="http://www.w3.org/2000/svg">
<path d="M35.4775 17.124H117.24L106.116 56.058H41.4675M111.678 78.306H44.934L33.81 6H17.124M17.124 33.81H6M22.686 50.496H6M28.248 67.182H6M50.496 100.554C50.496 103.626 48.0058 106.116 44.934 106.116C41.8622 106.116 39.372 103.626 39.372 100.554C39.372 97.4821 41.8622 94.992 44.934 94.992C48.0058 94.992 50.496 97.4821 50.496 100.554ZM111.678 100.554C111.678 103.626 109.188 106.116 106.116 106.116C103.044 106.116 100.554 103.626 100.554 100.554C100.554 97.4821 103.044 94.992 106.116 94.992C109.188 94.992 111.678 97.4821 111.678 100.554Z" stroke="#2088E2" stroke-width="11.124" stroke-linecap="round" stroke-linejoin="round"/>
</svg>
